<?xml version="1.0" encoding="utf-8"?>
<!DOCTYPE svg PUBLIC "-//W3C//DTD SVG 1.1//EN" "http://www.w3.org/Graphics/SVG/1.1/DTD/svg11.dtd">
<svg version="1.1" xmlns="http://www.w3.org/2000/svg" xmlns:xlink="http://www.w3.org/1999/xlink" x="0px" y="0px"
    viewBox="0 0 1000 1000" enable-background="new 0 0 1000 1000" xml:space="preserve">
    <metadata> Svg Vector Icons : http://www.onlinewebfonts.com/icon </metadata>
    <g>
        <path
            d="M984.9,316.8l-480-266.7c-3-1.7-6.7-1.7-9.7,0l-480,266.3c-4,2.2-6,6.8-4.8,11.2c1.1,4.4,5.1,7.5,9.7,7.5h43.3v43.3c0,5.5,4.5,10,10,10h43.3v44.2c0,5.5,4.5,10,10,10h25.6v328.6h-25.6c-5.5,0-10,4.5-10,10v43.4H91.1c-5.5,0-10,4.5-10,10v43.3h-7.8c-5.5,0-10,4.5-10,10v53.3c0,5.5,4.5,10,10,10h853.4c5.5,0,10-4.5,10-10v-53.3c0-5.5-4.5-10-10-10h-7.8v-43.3c0-5.5-4.5-10-10-10h-25.6v-43.4c0-5.5-4.5-10-10-10h-25.6V442.6h25.6c5.5,0,10-4.5,10-10v-44.2h43.3c5.5,0,10-4.5,10-10v-43.3l43.3,0.3c0,0,0.1,0,0.1,0c4.5,0,8.5-3.1,9.7-7.4C990.8,323.7,988.9,319,984.9,316.8z M312.2,388.4v44.2c0,5.5,4.5,10,10,10h25.6v328.6h-25.6c-5.5,0-10,4.5-10,10v43.4h-15.6v-43.4c0-5.5-4.5-10-10-10h-25.6V442.6h25.6c5.5,0,10-4.5,10-10v-44.2H312.2z M667.8,824.5h-140v-33.4h25.6h88.9h25.6L667.8,824.5L667.8,824.5z M563.3,771.2V442.6h68.9v328.6H563.3z M642.4,422.6c-0.1,0-0.1,0-0.2,0h-88.9c-0.1,0-0.1,0-0.2,0h-25.4v-33.4h140v33.4H642.4z M517.8,442.6h25.6v328.6h-25.6c-5.5,0-10,4.5-10,10v43.4h-15.6v-43.4c0-5.5-4.5-10-10-10h-25.6V442.6h25.6c5.5,0,10-4.5,10-10v-44.2h15.6v44.2C507.8,438.1,512.3,442.6,517.8,442.6z M332.2,389.3h140v33.4h-25.4c-0.1,0-0.1,0-0.2,0h-88.9c-0.1,0-0.1,0-0.2,0h-25.4L332.2,389.3L332.2,389.3z M367.8,442.6h68.9v328.6h-68.9V442.6z M357.8,791.1h88.9h25.6v33.4h-140v-33.4H357.8z M136.6,389.3h140v33.4h-25.4c-0.1,0-0.1,0-0.2,0h-88.9c-0.1,0-0.1,0-0.2,0h-25.4V389.3z M172.2,442.6h68.9v328.6h-68.9V442.6z M136.6,791.1h25.6h88.9h25.6v33.4h-140V791.1z M898.9,877.8H892c-5.5,0-10,4.5-10,10c0,5.5,4.5,10,10,10h16.9h7.8v33.4H83.3v-33.4h7.8H832c5.5,0,10-4.5,10-10c0-5.5-4.5-10-10-10h-731v-33.4h25.6h160h35.6h160h35.6h160h35.6h160h25.6V877.8z M863.4,824.5h-140v-33.4h25.6h88.9h25.6L863.4,824.5L863.4,824.5z M827.8,771.2h-68.9V442.6h68.9V771.2z M863.4,422.6H838c-0.1,0-0.1,0-0.2,0h-88.9c-0.1,0-0.1,0-0.2,0h-25.4v-33.4h140L863.4,422.6L863.4,422.6z M713.3,442.6h25.6v328.6h-25.6c-5.5,0-10,4.5-10,10v43.4h-15.6v-43.4c0-5.5-4.5-10-10-10h-25.6V442.6h25.6c5.5,0,10-4.5,10-10v-44.2h15.6v44.2C703.4,438.1,707.8,442.6,713.3,442.6z M926.8,315.1C926.7,315.1,926.7,315.1,926.8,315.1L926.8,315.1H898c-5.5,0-10,4.5-10,10c0,5.5,4.5,10,10,10h18.7v33.4H83.3v-33.4H832c5.5,0,10-4.5,10-10c0-5.5-4.5-10-10-10H73.3H58.6L500,70.3l440.9,245L926.8,315.1z M405.4,145.7c-2.3,1.9-3.6,4.7-3.6,7.6v112.3c0,4.8,3.5,9,8.3,9.8l88.2,15.5c0.6,0.1,1.1,0.2,1.7,0.2s1.2-0.1,1.7-0.2l88.2-15.5c4.8-0.8,8.3-5,8.3-9.8V153.3c0-2.9-1.3-5.7-3.6-7.6c-2.3-1.9-5.2-2.7-8.1-2.2L500,158.6l-86.5-15.2C410.6,143,407.6,143.8,405.4,145.7z M421.8,165.2l68.2,12v66.5c0,5.5,4.5,10,10,10c5.5,0,10-4.5,10-10v-66.5l68.2-12v92l-68.2,12v-0.4c0-5.5-4.5-10-10-10c-5.5,0-10,4.5-10,10v0.4l-68.2-12V165.2L421.8,165.2z M216.6,469v282.6c0,5.5-4.5,10-10,10c-5.5,0-10-4.5-10-10V469c0-5.5,4.5-10,10-10C212.2,459.1,216.6,463.5,216.6,469z M412.2,469v282.6c0,5.5-4.5,10-10,10c-5.5,0-10-4.5-10-10V469c0-5.5,4.5-10,10-10C407.7,459.1,412.2,463.5,412.2,469z M607.8,469v282.6c0,5.5-4.5,10-10,10c-5.5,0-10-4.5-10-10V469c0-5.5,4.5-10,10-10C603.3,459.1,607.8,463.5,607.8,469z M783.4,751.7V469c0-5.5,4.5-10,10-10s10,4.5,10,10v282.6c0,5.5-4.5,10-10,10S783.4,757.2,783.4,751.7z" />
        <g></g>
        <g></g>
        <g></g>
        <g></g>
        <g></g>
        <g></g>
        <g></g>
        <g></g>
        <g></g>
        <g></g>
        <g></g>
        <g></g>
        <g></g>
        <g></g>
        <g></g>
    </g>
</svg>